<svg width="3200" height="1320" viewBox="0 0 3200 1320" fill="none" xmlns="http://www.w3.org/2000/svg">
<path d="M2208.27 375.515C2208.27 379.518 2208.27 382.456 2208.27 386.317C2195.72 386.317 2183.04 386.096 2170.47 386.096C2170.47 386.096 2170.58 382.842 2170.47 381.243L2170.47 375.515C2182.81 375.515 2194.94 375.515 2208.27 375.515Z" fill="#F0D800"/>
<path d="M2209.09 366.709C2195.3 366.709 2182.38 366.709 2169.34 366.709C2168.59 364.685 2167.73 363.014 2167.34 361.241C2164.39 348.03 2158.18 336.378 2150.49 325.395C2146.77 320.075 2143.01 314.783 2139.44 309.37C2123.33 285.018 2131.78 250.824 2158.58 235.71C2180.99 223.083 2210.83 225.952 2229.66 242.747C2248.29 259.366 2252.6 286.132 2239.97 307.708C2237.32 312.239 2234.35 316.603 2231.24 320.827C2221.97 333.379 2214.35 346.693 2210.96 362.123C2210.63 363.581 2209.82 364.945 2209.09 366.709Z" fill="#F0D800"/>
<path d="M438.582 436.396C438.582 381.183 438.582 327.456 438.582 272.345C467.738 282.084 495.751 291.442 524.442 301.014C524.442 304.347 524.442 310.447 524.442 310.447C524.442 399.575 524.358 488.694 524.469 577.822C524.525 626.545 507.431 668.37 471.786 701.236C425.175 744.204 369.836 756.932 309.817 737.25C244.97 715.98 206.715 669.642 197.57 601.599C187.672 527.873 228.461 457.564 296.771 429.767C341.674 411.496 386.707 412.889 430.969 433.128C432.9 434.01 434.878 434.808 438.582 436.396ZM359.984 659.198C396.846 660.98 437.895 630.203 438.285 581.796C438.638 538.206 403.522 503.289 359.845 503.233C316.79 503.186 282.212 538.318 282.166 581.461C282.129 626.452 319.873 660.572 359.984 659.198Z" fill="white"/>
<path d="M756.996 744.915C665.074 745.166 592.372 669.314 593.597 578.747C594.842 486.75 670.45 416.079 758.807 416.84C849.048 417.62 923.013 490.213 921.899 582.86C920.822 672.146 849.141 745.741 756.996 744.915ZM835.882 580.697C835.762 537.711 800.915 502.765 758.083 502.663C714.888 502.552 679.41 537.971 679.559 581.059C679.707 624.453 714.935 659.222 758.435 658.916C801.602 658.609 836.003 623.868 835.882 580.697Z" fill="white"/>
<path d="M1459.58 741.371C1431.7 741.371 1403.7 741.371 1375.39 741.371C1375.01 737.239 1374.7 733.609 1374.28 728.902C1327.97 749.959 1281.39 751.88 1234.81 731.956C1203.53 718.578 1178.73 697.159 1160.94 668.035C1124.88 609.015 1128.65 535.448 1170.76 480.968C1194.73 449.959 1226.4 430.36 1264.37 421.429C1302.08 412.562 1339.49 417.639 1375.23 434.982C1375.23 434.982 1374.93 423.388 1375.23 417.771C1403.62 417.771 1431.61 417.771 1459.54 417.771L1459.58 741.371ZM1300.4 659.196C1345.27 660.283 1378.71 622.561 1378.35 580.922C1377.98 537.834 1342.92 502.647 1299.26 503.287C1256.45 503.909 1222.51 538.809 1222.58 581.534C1222.67 628.549 1262.06 660.505 1300.4 659.196Z" fill="white"/>
<path d="M2474.59 744.926C2383.67 745.492 2310.43 672.797 2310.02 581.589C2309.6 490.994 2382.39 417.232 2473.5 416.805C2560.33 416.396 2637.91 485.303 2638.32 580.503C2638.72 669.9 2567.21 745.149 2474.59 744.926ZM2552.13 580.392C2551.96 537.471 2517.02 502.646 2474.13 502.665C2430.92 502.683 2395.75 538.093 2395.97 581.339C2396.2 624.306 2431.07 658.908 2474.15 658.908C2517.75 658.917 2552.31 624.12 2552.13 580.392Z" fill="white"/>
<path d="M3003.69 741.482C2975.17 741.482 2946.75 741.482 2917.67 741.482C2917.67 737.536 2917.67 733.943 2917.67 730.35C2917.67 678.387 2917.62 626.423 2917.68 574.46C2917.71 556.263 2912.1 540.609 2898.65 527.862C2866.3 497.215 2811.7 513.147 2801.3 556.495C2800.3 560.635 2800.22 565.073 2800.22 569.372C2800.15 622.876 2800.17 676.391 2800.17 729.895C2800.17 733.516 2800.17 737.146 2800.17 741.333C2771.13 741.333 2743.11 741.333 2715.11 741.333L2714.62 417.696C2742.55 417.696 2770.58 417.696 2799.63 417.696V436.714C2802.26 435.981 2805.33 435.791 2807.33 435.095C2852.08 419.414 2895.35 422.738 2935.42 448.185C2977.56 474.952 3001.52 514.15 3002.96 564.321C3004.6 621.493 3003.58 678.749 3003.69 735.958C3003.69 737.471 3003.69 741.482 3003.69 741.482Z" fill="white"/>
<path d="M1827.55 487.253C1804.68 503.491 1781.78 519.748 1758.32 536.394C1740.82 513.823 1718.2 502.061 1689.92 503.352C1668.61 504.317 1650.44 513.314 1636.12 529.18C1606.9 561.554 1610.62 609.6 1640.19 638.065C1667.54 664.376 1722.32 671.887 1758.76 626.608C1782.04 642.54 1805.37 658.509 1828.65 674.45C1800.24 720.639 1732.05 758.286 1658.31 741.825C1584.07 725.253 1530.87 660.505 1529.91 582.722C1529.01 509.943 1578.47 443.794 1648.9 423.564C1721.9 402.609 1795.13 436.478 1827.55 487.253Z" fill="white"/>
<path d="M2231.62 741.388C2203.04 741.388 2175.02 741.388 2147.02 741.388L2146.03 437.638C2174.04 428.363 2202.39 418.986 2231.61 409.312C2231.62 520.387 2231.62 630.303 2231.62 741.388Z" fill="white"/>
<path d="M1963.4 500.66L1961.72 500.66C1961.93 525.709 1961.2 554.109 1963.1 579.027C1966.46 623.332 2002.91 657.776 2047.45 660.914C2049.25 661.044 2051.03 661.313 2053.4 661.582C2053.4 689.946 2053.4 717.947 2053.4 746.44C2052.41 746.728 2051.29 747.359 2050.18 747.322C1957.13 744.611 1886.35 674.497 1877.56 590.967C1876.69 582.676 1876.06 574.32 1876.04 565.983C1875.92 495.424 1875.97 424.873 1875.97 354.313C1875.97 351.862 1875.97 349.411 1875.97 346.05C1904.17 336.608 1932.18 327.231 1961.74 317.325C1961.74 352.262 1961.74 386.01 1961.74 420.621C1992.95 420.621 2022.85 420.621 2053.37 420.621C2053.37 447.591 2053.37 473.68 2053.37 500.641C2023.12 500.66 1993.23 500.66 1963.4 500.66Z" fill="white"/>
<path d="M1786.73 963.411H1831.01L1840.54 967.807C1840.54 967.807 1848.94 970.569 1851.77 972.417C1844.58 990.475 1838.81 1008.64 1828.67 1025.07C1810.93 1053.76 1785.77 1073.22 1755.13 1086.37C1750.7 1088.27 1747.58 1087.81 1744.3 1084.73C1740.48 1081.13 1736.54 1077.65 1732.71 1074.06C1732.07 1073.46 1731.75 1072.53 1730.82 1071.01C1758.92 1061.99 1783.74 1048.19 1801.64 1024.27C1810.58 1012.31 1817.44 999.23 1821.36 983.753C1818.76 983.382 1816.46 982.797 1814.15 982.778C1803.02 982.676 1791.88 982.992 1780.76 982.62C1775.56 982.444 1772.13 984.254 1768.95 988.228C1758.29 1001.58 1745.96 1013.19 1731.04 1023.32C1725.48 1019.33 1719.81 1015.26 1714.09 1011.16C1725.86 1000.24 1737.86 990.252 1748.46 978.944C1759.25 967.441 1767.42 953.886 1773.01 937.973C1780.79 940.526 1788.24 942.977 1796.35 945.641C1793.08 951.695 1790.21 956.996 1786.73 963.411Z" fill="white"/>
<path d="M2228.41 1001.8C2202.88 1001.8 2178.23 1001.8 2153.06 1001.8C2153.06 995.202 2153.06 989.204 2153.06 983.16C2185.36 983.16 2217.12 983.16 2249.61 983.16C2249.61 1018.84 2249.61 1053.91 2249.61 1090.25C2243.99 1090.25 2228.41 1090.25 2228.41 1090.25V1083.9C2204.31 1083.9 2177.05 1083.84 2151.09 1083.84C2151.09 1077.29 2151.09 1071.29 2151.09 1064.55C2176.53 1064.55 2202.64 1064.84 2228.68 1064.84L2228.68 1041.73C2220.67 1041.66 2212.78 1041.57 2204.89 1041.53C2197.15 1041.49 2189.42 1041.52 2181.67 1041.52C2173.7 1041.52 2165.72 1041.52 2157.21 1041.52C2157.21 1034.9 2157.21 1029.22 2157.21 1022.73C2181.04 1022.73 2204.4 1022.73 2228.42 1022.73C2228.42 1022.73 2228.41 1009.36 2228.41 1001.8Z" fill="white"/>
<path d="M946.23 1093C941.058 1087.1 936.221 1081.55 930.659 1075.2C933.658 1074.17 935.784 1073.28 938.004 1072.72C951.634 1069.22 964.401 1063.99 974.912 1054.28C987.289 1042.84 993.018 1028.26 995.562 1010.53C972.498 1009.9 950.186 1010.33 926.731 1010.23C926.731 1020.43 926.731 1029.81 926.731 1039.74C919.545 1039.74 913.491 1039.74 906.787 1039.74C906.787 1023.69 906.787 1007.81 906.787 991.274C920.993 991.274 935.088 991.274 949.981 991.274C949.981 984.042 949.981 977.422 949.981 970.051C957.809 970.051 964.921 970.051 972.293 970.051C972.293 976.949 972.293 983.355 972.293 991.126C981.151 991.126 1003.61 991.274 1003.61 991.274L1021.71 998.191C1017.19 1023.95 1011.78 1049.47 991.662 1068.94C979.099 1081.08 963.974 1088.29 946.23 1093Z" fill="white"/>
<path d="M740.639 991.439C764.196 999.563 787.752 1006.93 810.77 1018.09C807.891 1025.55 805.152 1032.63 802.209 1040.25C781.884 1032.02 762.06 1024 740.426 1015.23L741.633 1086.84C733.007 1086.84 725.17 1086.84 716.897 1086.84C716.897 1040.21 716.897 993.927 716.897 947.005C724.353 947.005 732.218 947.005 740.639 947.005C740.639 961.47 740.639 975.851 740.639 991.439Z" fill="white"/>
<path d="M1661.94 963.095C1648.68 983.344 1635.69 1003.19 1615.44 1017.82C1609.96 1013.46 1604.76 1009.32 1598.99 1004.74C1610.07 995.274 1622.92 984.844 1630.87 971.271C1630.87 971.271 1610.64 972.695 1601.96 972.583C1593 972.463 1584.03 972.555 1575.06 972.555C1566.09 972.555 1557.13 972.555 1548.16 972.555C1539.28 972.555 1530.39 972.555 1520.88 972.555C1520.88 965.407 1520.88 958.527 1520.88 952.177C1556.94 952.177 1592.39 952.177 1627.84 952.177C1630.93 952.177 1643 952.177 1643 952.177L1661.94 963.095Z" fill="white"/>
<path d="M2357.47 1083.43C2353.18 1076.55 2349.13 1070.05 2344.34 1062.37C2400.45 1053.06 2442.58 1024.94 2470.56 974.857C2475.06 982.916 2479.04 990.037 2482.9 996.945C2463.63 1036.3 2407.83 1077.61 2357.47 1083.43Z" fill="white"/>
<path d="M2052.98 982.377C2057.47 990.185 2061.29 996.851 2065.7 1004.53C2034.72 1047.08 1993.78 1074.3 1941.9 1086.28C1937.65 1078.76 1933.77 1071.86 1929.42 1064.14C1982.74 1055.04 2023.28 1028.24 2052.98 982.377Z" fill="white"/>
<path d="M1101.43 1000.37C1147.51 1000.37 1192.28 1000.37 1237.85 1000.37C1237.85 1008.68 1237.85 1016.77 1237.85 1025.23C1192.61 1025.23 1147.59 1025.23 1101.53 1025.23C1100.82 1016.99 1100.92 1008.69 1101.43 1000.37Z" fill="white"/>
<path d="M1546.42 1086.91C1540.4 1082.02 1534.69 1077.37 1528.18 1072.06C1530.95 1070.42 1533.09 1068.98 1535.37 1067.81C1556.59 1056.9 1568.97 1040.12 1569.7 1015.77C1569.99 1006.25 1569.75 996.714 1569.75 986.595C1577.52 986.595 1584.78 986.595 1593.37 986.595C1593.37 990.281 1593.64 993.883 1593.33 997.429C1592.19 1010.01 1591.95 1022.8 1589.38 1035.1C1584.27 1059.51 1568.24 1075.53 1546.42 1086.91Z" fill="white"/>
<path d="M1399.01 1012.99C1399.2 1025.23 1389.54 1035.16 1377.58 1035.03C1366.27 1034.9 1356.24 1024.79 1356.23 1013.51C1356.22 1002.14 1365.99 992.294 1377.54 992.025C1389.08 991.756 1398.82 1001.27 1399.01 1012.99Z" fill="white"/>
<path d="M2408.29 984.578C2401.97 990.307 2396.51 995.255 2390.69 1000.54C2377.74 989.388 2364.05 977.615 2349.94 965.472C2354.54 960.467 2359.12 955.51 2364.52 949.633L2408.29 984.578Z" fill="white"/>
<path d="M1998.69 967.942C1994.29 974.441 1990.53 979.993 1986.48 985.99C1973.85 977.894 1961.73 970.133 1948.87 961.889C1952.59 956.132 1956.2 950.543 1960.39 944.054C1960.39 944.054 1985.84 959.215 1998.69 967.942Z" fill="white"/>
<path d="M1960.74 1024.53C1947.7 1016.27 1935.57 1008.61 1922.78 1000.51C1926.77 994.41 1930.4 988.858 1934.7 982.294C1947.66 990.371 1960.05 998.086 1972.8 1006.02C1968.46 1012.67 1964.8 1018.28 1960.74 1024.53Z" fill="white"/>
<path d="M823.008 967.132C818.003 969.583 813.973 971.561 809.414 973.789C804.205 965.415 799.266 957.467 793.945 948.907C798.319 946.874 802.163 945.092 807.204 942.752C812.32 950.634 817.362 958.424 823.008 967.132Z" fill="white"/>
<path d="M800.064 977.087C794.902 979.371 790.77 981.2 786.276 983.187C781.383 974.738 776.777 966.781 771.661 957.952C775.821 956.077 779.897 954.229 784.939 951.945C789.981 960.31 794.827 968.369 800.064 977.087Z" fill="white"/>
</svg>
