<svg width="3200" height="1320" viewBox="0 0 3200 1320" fill="none" xmlns="http://www.w3.org/2000/svg">
<path d="M438.582 436.396C438.582 381.183 438.582 327.456 438.582 272.345C467.738 282.084 495.751 291.442 524.442 301.014C524.442 304.347 524.442 310.447 524.442 310.447C524.442 399.575 524.358 488.694 524.469 577.822C524.525 626.545 507.431 668.37 471.786 701.236C425.175 744.204 369.836 756.932 309.817 737.25C244.97 715.98 206.715 669.642 197.57 601.599C187.672 527.873 228.461 457.564 296.771 429.767C341.674 411.496 386.707 412.889 430.969 433.128C432.9 434.01 434.878 434.808 438.582 436.396ZM359.984 659.198C396.846 660.98 437.895 630.203 438.285 581.796C438.638 538.206 403.522 503.289 359.845 503.233C316.79 503.186 282.212 538.318 282.166 581.461C282.129 626.452 319.873 660.572 359.984 659.198Z" fill="black"/>
<path d="M756.996 744.915C665.074 745.166 592.372 669.314 593.597 578.747C594.842 486.75 670.45 416.079 758.807 416.84C849.048 417.62 923.013 490.213 921.899 582.86C920.822 672.146 849.141 745.741 756.996 744.915ZM835.882 580.697C835.762 537.711 800.915 502.765 758.083 502.663C714.888 502.552 679.41 537.971 679.559 581.059C679.707 624.453 714.935 659.222 758.435 658.916C801.602 658.609 836.003 623.868 835.882 580.697Z" fill="black"/>
<path d="M1459.58 741.371C1431.7 741.371 1403.7 741.371 1375.39 741.371C1375.01 737.239 1374.7 733.609 1374.28 728.902C1327.97 749.959 1281.39 751.88 1234.81 731.956C1203.53 718.578 1178.73 697.159 1160.94 668.035C1124.88 609.015 1128.65 535.448 1170.76 480.968C1194.73 449.959 1226.4 430.36 1264.37 421.429C1302.08 412.562 1339.49 417.639 1375.23 434.982C1375.23 434.982 1374.93 423.388 1375.23 417.771C1403.62 417.771 1431.61 417.771 1459.54 417.771L1459.58 741.371ZM1300.4 659.196C1345.27 660.283 1378.71 622.561 1378.35 580.922C1377.98 537.834 1342.92 502.647 1299.26 503.287C1256.45 503.909 1222.51 538.809 1222.58 581.534C1222.67 628.549 1262.06 660.505 1300.4 659.196Z" fill="black"/>
<path d="M2474.59 744.926C2383.67 745.492 2310.43 672.797 2310.02 581.589C2309.6 490.994 2382.39 417.232 2473.5 416.805C2560.33 416.396 2637.91 485.303 2638.32 580.503C2638.72 669.9 2567.21 745.149 2474.59 744.926ZM2552.13 580.392C2551.96 537.471 2517.02 502.646 2474.13 502.665C2430.92 502.683 2395.75 538.093 2395.97 581.339C2396.2 624.306 2431.07 658.908 2474.15 658.908C2517.75 658.917 2552.31 624.12 2552.13 580.392Z" fill="black"/>
<path d="M3003.69 741.482C2975.17 741.482 2946.75 741.482 2917.66 741.482C2917.66 737.536 2917.66 733.943 2917.66 730.35C2917.66 678.387 2917.62 626.423 2917.68 574.46C2917.71 556.263 2912.1 540.609 2898.65 527.862C2866.3 497.215 2811.7 513.147 2801.29 556.495C2800.3 560.635 2800.22 565.073 2800.22 569.372C2800.15 622.876 2800.17 676.391 2800.17 729.895C2800.17 733.516 2800.17 737.146 2800.17 741.333C2771.13 741.333 2743.1 741.333 2715.11 741.333L2714.62 417.696C2742.55 417.696 2770.58 417.696 2799.63 417.696V436.714C2802.26 435.981 2805.33 435.791 2807.33 435.095C2852.08 419.414 2895.35 422.738 2935.42 448.185C2977.56 474.952 3001.52 514.15 3002.96 564.321C3004.6 621.493 3003.58 678.749 3003.69 735.958C3003.69 737.471 3003.69 741.482 3003.69 741.482Z" fill="black"/>
<path d="M1827.55 487.253C1804.68 503.491 1781.78 519.748 1758.32 536.394C1740.82 513.823 1718.2 502.061 1689.92 503.352C1668.61 504.317 1650.44 513.314 1636.12 529.18C1606.9 561.554 1610.62 609.6 1640.19 638.065C1667.54 664.376 1722.32 671.887 1758.76 626.608C1782.04 642.54 1805.37 658.509 1828.65 674.45C1800.24 720.639 1732.05 758.286 1658.31 741.825C1584.07 725.253 1530.87 660.505 1529.91 582.722C1529.01 509.943 1578.47 443.794 1648.9 423.564C1721.9 402.609 1795.13 436.478 1827.55 487.253Z" fill="black"/>
<path d="M2231.62 741.388C2203.04 741.388 2175.02 741.388 2147.02 741.388L2146.03 437.638C2174.04 428.363 2202.39 418.986 2231.61 409.312C2231.62 520.387 2231.62 630.303 2231.62 741.388Z" fill="black"/>
<path d="M1963.4 500.66H1961.72C1961.93 525.709 1961.2 554.109 1963.1 579.027C1966.46 623.332 2002.91 657.776 2047.45 660.914C2049.25 661.044 2051.03 661.313 2053.4 661.582C2053.4 689.946 2053.4 717.947 2053.4 746.44C2052.41 746.728 2051.29 747.359 2050.18 747.322C1957.13 744.611 1886.35 674.497 1877.56 590.967C1876.69 582.676 1876.06 574.32 1876.04 565.983C1875.92 495.424 1875.97 424.873 1875.97 354.313C1875.97 351.862 1875.97 349.411 1875.97 346.05C1904.17 336.608 1932.18 327.231 1961.74 317.325C1961.74 352.262 1961.74 386.01 1961.74 420.621C1992.95 420.621 2022.85 420.621 2053.37 420.621C2053.37 447.591 2053.37 473.68 2053.37 500.641C2023.12 500.66 1993.23 500.66 1963.4 500.66Z" fill="black"/>
<path d="M2038.73 954.411H2083.01L2092.54 958.807C2092.54 958.807 2100.94 961.569 2103.77 963.417C2096.58 981.475 2090.81 999.644 2080.67 1016.07C2062.93 1044.76 2037.77 1064.22 2007.13 1077.37C2002.7 1079.27 1999.58 1078.81 1996.3 1075.73C1992.48 1072.13 1988.54 1068.65 1984.71 1065.06C1984.07 1064.46 1983.75 1063.53 1982.82 1062.01C2010.92 1052.99 2035.74 1039.19 2053.64 1015.27C2062.58 1003.31 2069.44 990.23 2073.36 974.753C2070.76 974.382 2068.46 973.797 2066.15 973.778C2055.02 973.676 2043.88 973.992 2032.76 973.62C2027.56 973.444 2024.13 975.254 2020.95 979.228C2010.29 992.579 1997.96 1004.19 1983.04 1014.32C1977.48 1010.33 1971.81 1006.26 1966.09 1002.16C1977.86 991.242 1989.86 981.252 2000.46 969.944C2011.25 958.441 2019.42 944.886 2025.01 928.973C2032.79 931.526 2040.24 933.977 2048.35 936.641C2045.08 942.695 2042.21 947.996 2038.73 954.411Z" fill="black"/>
<path d="M2480.41 992.803C2454.88 992.803 2430.23 992.803 2405.06 992.803C2405.06 986.202 2405.06 980.204 2405.06 974.16C2437.36 974.16 2469.12 974.16 2501.61 974.16C2501.61 1009.84 2501.61 1044.91 2501.61 1081.25C2495.99 1081.25 2480.41 1081.25 2480.41 1081.25V1074.9C2456.31 1074.9 2429.05 1074.84 2403.09 1074.84C2403.09 1068.29 2403.09 1062.29 2403.09 1055.55C2428.53 1055.55 2454.64 1055.84 2480.68 1055.84L2480.68 1032.73C2472.67 1032.66 2464.78 1032.57 2456.89 1032.53C2449.15 1032.49 2441.42 1032.52 2433.67 1032.52C2425.7 1032.52 2417.72 1032.52 2409.21 1032.52C2409.21 1025.9 2409.21 1020.22 2409.21 1013.73C2433.04 1013.73 2456.4 1013.73 2480.42 1013.73C2480.42 1013.73 2480.41 1000.36 2480.41 992.803Z" fill="black"/>
<path d="M1198.23 1084C1193.06 1078.1 1188.22 1072.55 1182.66 1066.2C1185.66 1065.17 1187.78 1064.28 1190 1063.71C1203.63 1060.21 1216.4 1054.99 1226.91 1045.28C1239.29 1033.84 1245.02 1019.26 1247.56 1001.53C1224.5 1000.9 1202.19 1001.32 1178.73 1001.23C1178.73 1011.43 1178.73 1020.81 1178.73 1030.74C1171.54 1030.74 1165.49 1030.74 1158.79 1030.74C1158.79 1014.69 1158.79 998.809 1158.79 982.273C1172.99 982.273 1187.09 982.273 1201.98 982.273C1201.98 975.041 1201.98 968.421 1201.98 961.05C1209.81 961.05 1216.92 961.05 1224.29 961.05C1224.29 967.948 1224.29 974.354 1224.29 982.125C1233.15 982.125 1255.61 982.273 1255.61 982.273L1273.71 989.19C1269.19 1014.95 1263.78 1040.47 1243.66 1059.94C1231.1 1072.08 1215.97 1079.29 1198.23 1084Z" fill="black"/>
<path d="M992.639 982.439C1016.2 990.563 1039.75 997.934 1062.77 1009.09C1059.89 1016.55 1057.15 1023.63 1054.21 1031.25C1033.88 1023.02 1014.06 1015 992.426 1006.23L993.633 1077.84C985.007 1077.84 977.17 1077.84 968.897 1077.84C968.897 1031.21 968.897 984.927 968.897 938.005C976.353 938.005 984.218 938.005 992.639 938.005C992.639 952.47 992.639 966.851 992.639 982.439Z" fill="black"/>
<path d="M1913.94 954.094C1900.68 974.343 1887.69 994.192 1867.44 1008.81C1861.96 1004.46 1856.76 1000.32 1850.99 995.743C1862.07 986.273 1874.92 975.843 1882.87 962.27C1882.87 962.27 1862.64 963.694 1853.96 963.582C1845 963.462 1836.03 963.554 1827.06 963.554C1818.09 963.554 1809.13 963.554 1800.16 963.554C1791.28 963.554 1782.39 963.554 1772.88 963.554C1772.88 956.406 1772.88 949.526 1772.88 943.176C1808.94 943.176 1844.39 943.176 1879.84 943.176C1882.93 943.176 1895 943.176 1895 943.176L1913.94 954.094Z" fill="black"/>
<path d="M2609.47 1074.43C2605.18 1067.55 2601.13 1061.05 2596.34 1053.37C2652.45 1044.06 2694.58 1015.94 2722.56 965.857C2727.07 973.916 2731.04 981.037 2734.9 987.945C2715.63 1027.3 2659.83 1068.61 2609.47 1074.43Z" fill="black"/>
<path d="M2304.98 973.377C2309.47 981.185 2313.29 987.851 2317.7 995.529C2286.72 1038.08 2245.78 1065.3 2193.9 1077.28C2189.65 1069.76 2185.77 1062.86 2181.42 1055.14C2234.74 1046.04 2275.28 1019.24 2304.98 973.377Z" fill="black"/>
<path d="M1353.43 991.37C1399.51 991.37 1444.28 991.37 1489.85 991.37C1489.85 999.679 1489.85 1007.77 1489.85 1016.23C1444.61 1016.23 1399.59 1016.23 1353.53 1016.23C1352.82 1007.99 1352.92 999.689 1353.43 991.37Z" fill="black"/>
<path d="M1798.42 1077.91C1792.4 1073.02 1786.69 1068.37 1780.18 1063.06C1782.95 1061.42 1785.09 1059.98 1787.37 1058.81C1808.59 1047.9 1820.97 1031.12 1821.71 1006.77C1821.99 997.248 1821.75 987.714 1821.75 977.594C1829.52 977.594 1836.78 977.594 1845.37 977.594C1845.37 981.28 1845.64 984.882 1845.33 988.428C1844.19 1001.01 1843.95 1013.8 1841.38 1026.1C1836.27 1050.51 1820.24 1066.53 1798.42 1077.91Z" fill="black"/>
<path d="M1651.01 1003.99C1651.2 1016.23 1641.54 1026.16 1629.58 1026.03C1618.27 1025.9 1608.24 1015.79 1608.23 1004.51C1608.22 993.136 1617.99 983.294 1629.54 983.025C1641.08 982.756 1650.82 992.272 1651.01 1003.99Z" fill="black"/>
<path d="M2660.29 975.578C2653.97 981.307 2648.51 986.255 2642.69 991.538C2629.74 980.388 2616.05 968.615 2601.94 956.472C2606.54 951.467 2611.12 946.51 2616.53 940.633L2660.29 975.578Z" fill="black"/>
<path d="M2250.69 958.942C2246.29 965.441 2242.53 970.993 2238.47 976.99C2225.85 968.894 2213.73 961.133 2200.87 952.889C2204.59 947.132 2208.2 941.543 2212.39 935.054C2212.39 935.054 2237.83 950.215 2250.69 958.942Z" fill="black"/>
<path d="M2212.74 1015.53C2199.7 1007.27 2187.57 999.605 2174.78 991.509C2178.77 985.41 2182.4 979.858 2186.7 973.294C2199.66 981.371 2212.05 989.086 2224.8 997.024C2220.46 1003.67 2216.8 1009.28 2212.74 1015.53Z" fill="black"/>
<path d="M1075.01 958.132C1070 960.583 1065.97 962.561 1061.41 964.789C1056.21 956.415 1051.27 948.467 1045.95 939.907C1050.32 937.874 1054.16 936.092 1059.2 933.752C1064.32 941.634 1069.36 949.424 1075.01 958.132Z" fill="black"/>
<path d="M1052.06 968.087C1046.9 970.371 1042.77 972.2 1038.28 974.187C1033.38 965.738 1028.78 957.781 1023.66 948.952C1027.82 947.077 1031.9 945.229 1036.94 942.945C1041.98 951.31 1046.83 959.369 1052.06 968.087Z" fill="black"/>
<g clip-path="url(#clip0_186_2)">
<path d="M509.872 879.335L477.854 887.914C471.96 889.493 468.484 895.633 470.09 901.627L471.544 907.054C473.15 913.048 479.231 916.628 485.125 915.048L506.597 909.295L569.063 1026.12C579.298 1045.26 600.885 1055.05 621.559 1050.06L621.563 1050.08L705.05 1027.71C725.849 1022.13 739.536 1002.13 737.458 980.34L729.519 897.111C728.197 883.254 714.909 873.836 701.682 877.38L543.54 919.754L525.648 886.292C522.582 880.557 516.053 877.678 509.872 879.335Z" fill="black"/>
<path d="M632.798 1081.97C636.011 1093.95 629.058 1106.23 617.27 1109.39C605.481 1112.55 593.321 1105.39 590.109 1093.4C586.896 1081.41 593.848 1069.14 605.637 1065.98C617.425 1062.82 629.586 1069.98 632.798 1081.97Z" fill="black"/>
<path d="M750.196 1050.51C753.408 1062.5 746.456 1074.78 734.667 1077.94C722.879 1081.09 710.718 1073.94 707.506 1061.95C704.294 1049.96 711.246 1037.68 723.034 1034.52C734.823 1031.36 746.983 1038.52 750.196 1050.51Z" fill="black"/>
</g>
<path d="M2208 385.631C2208 389.635 2208 392.572 2208 396.433C2195.44 396.433 2182.77 396.212 2170.2 396.212C2170.2 396.212 2170.31 392.959 2170.2 391.36L2170.19 385.631C2182.54 385.631 2194.66 385.631 2208 385.631Z" fill="#F0D800"/>
<path d="M2208.82 376.826C2195.03 376.826 2182.1 376.826 2169.07 376.826C2168.31 374.802 2167.45 373.131 2167.06 371.357C2164.12 358.146 2157.91 346.494 2150.22 335.511C2146.49 330.191 2142.73 324.899 2139.16 319.487C2123.05 295.134 2131.5 260.941 2158.3 245.826C2180.71 233.199 2210.55 236.068 2229.38 252.863C2248.02 269.482 2252.33 296.248 2239.69 317.825C2237.04 322.355 2234.07 326.719 2230.96 330.943C2221.69 343.495 2214.07 356.809 2210.68 372.239C2210.36 373.697 2209.54 375.062 2208.82 376.826Z" fill="#F0D800"/>
<path d="M438.582 436.396C438.582 381.183 438.582 327.456 438.582 272.345C467.738 282.084 495.751 291.442 524.442 301.014C524.442 304.347 524.442 310.447 524.442 310.447C524.442 399.575 524.358 488.694 524.469 577.822C524.525 626.545 507.431 668.37 471.786 701.236C425.175 744.204 369.836 756.932 309.817 737.25C244.97 715.98 206.715 669.642 197.57 601.599C187.672 527.873 228.461 457.564 296.771 429.767C341.674 411.496 386.707 412.889 430.969 433.128C432.9 434.01 434.878 434.808 438.582 436.396ZM359.984 659.198C396.846 660.98 437.895 630.203 438.285 581.796C438.638 538.206 403.522 503.289 359.845 503.233C316.79 503.186 282.212 538.318 282.166 581.461C282.129 626.452 319.873 660.572 359.984 659.198Z" fill="black"/>
<path d="M756.996 744.915C665.074 745.166 592.372 669.314 593.597 578.747C594.842 486.75 670.45 416.079 758.807 416.84C849.048 417.62 923.013 490.213 921.899 582.86C920.822 672.146 849.141 745.741 756.996 744.915ZM835.882 580.697C835.762 537.711 800.915 502.765 758.083 502.663C714.888 502.552 679.41 537.971 679.559 581.059C679.707 624.453 714.935 659.222 758.435 658.916C801.602 658.609 836.003 623.868 835.882 580.697Z" fill="black"/>
<path d="M1459.58 741.371C1431.7 741.371 1403.7 741.371 1375.39 741.371C1375.01 737.239 1374.7 733.609 1374.28 728.902C1327.97 749.959 1281.39 751.88 1234.81 731.956C1203.53 718.578 1178.73 697.159 1160.94 668.035C1124.88 609.015 1128.65 535.448 1170.76 480.968C1194.73 449.959 1226.4 430.36 1264.37 421.429C1302.08 412.562 1339.49 417.639 1375.23 434.982C1375.23 434.982 1374.93 423.388 1375.23 417.771C1403.62 417.771 1431.61 417.771 1459.54 417.771L1459.58 741.371ZM1300.4 659.196C1345.27 660.283 1378.71 622.561 1378.35 580.922C1377.98 537.834 1342.92 502.647 1299.26 503.287C1256.45 503.909 1222.51 538.809 1222.58 581.534C1222.67 628.549 1262.06 660.505 1300.4 659.196Z" fill="black"/>
<path d="M2474.59 744.926C2383.67 745.492 2310.43 672.797 2310.02 581.589C2309.6 490.994 2382.39 417.232 2473.5 416.805C2560.33 416.396 2637.91 485.303 2638.32 580.503C2638.72 669.9 2567.21 745.149 2474.59 744.926ZM2552.13 580.392C2551.96 537.471 2517.02 502.646 2474.13 502.665C2430.92 502.683 2395.75 538.093 2395.97 581.339C2396.2 624.306 2431.07 658.908 2474.15 658.908C2517.75 658.917 2552.31 624.12 2552.13 580.392Z" fill="black"/>
<path d="M3003.69 741.482C2975.17 741.482 2946.75 741.482 2917.66 741.482C2917.66 737.536 2917.66 733.943 2917.66 730.35C2917.66 678.387 2917.62 626.423 2917.68 574.46C2917.71 556.263 2912.1 540.609 2898.65 527.862C2866.3 497.215 2811.7 513.147 2801.29 556.495C2800.3 560.635 2800.22 565.073 2800.22 569.372C2800.15 622.876 2800.17 676.391 2800.17 729.895C2800.17 733.516 2800.17 737.146 2800.17 741.333C2771.13 741.333 2743.1 741.333 2715.11 741.333L2714.62 417.696C2742.55 417.696 2770.58 417.696 2799.63 417.696V436.714C2802.26 435.981 2805.33 435.791 2807.33 435.095C2852.08 419.414 2895.35 422.738 2935.42 448.185C2977.56 474.952 3001.52 514.15 3002.96 564.321C3004.6 621.493 3003.58 678.749 3003.69 735.958C3003.69 737.471 3003.69 741.482 3003.69 741.482Z" fill="black"/>
<path d="M1827.55 487.253C1804.68 503.491 1781.78 519.748 1758.32 536.394C1740.82 513.823 1718.2 502.061 1689.92 503.352C1668.61 504.317 1650.44 513.314 1636.12 529.18C1606.9 561.554 1610.62 609.6 1640.19 638.065C1667.54 664.376 1722.32 671.887 1758.76 626.608C1782.04 642.54 1805.37 658.509 1828.65 674.45C1800.24 720.639 1732.05 758.286 1658.31 741.825C1584.07 725.253 1530.87 660.505 1529.91 582.722C1529.01 509.943 1578.47 443.794 1648.9 423.564C1721.9 402.609 1795.13 436.478 1827.55 487.253Z" fill="black"/>
<path d="M2231.62 741.388C2203.04 741.388 2175.02 741.388 2147.02 741.388L2146.03 437.638C2174.04 428.363 2202.39 418.986 2231.61 409.312C2231.62 520.387 2231.62 630.303 2231.62 741.388Z" fill="black"/>
<path d="M1963.4 500.66H1961.72C1961.93 525.709 1961.2 554.109 1963.1 579.027C1966.46 623.332 2002.91 657.776 2047.45 660.914C2049.25 661.044 2051.03 661.313 2053.4 661.582C2053.4 689.946 2053.4 717.947 2053.4 746.44C2052.41 746.728 2051.29 747.359 2050.18 747.322C1957.13 744.611 1886.35 674.497 1877.56 590.967C1876.69 582.676 1876.06 574.32 1876.04 565.983C1875.92 495.424 1875.97 424.873 1875.97 354.313C1875.97 351.862 1875.97 349.411 1875.97 346.05C1904.17 336.608 1932.18 327.231 1961.74 317.325C1961.74 352.262 1961.74 386.01 1961.74 420.621C1992.95 420.621 2022.85 420.621 2053.37 420.621C2053.37 447.591 2053.37 473.68 2053.37 500.641C2023.12 500.66 1993.23 500.66 1963.4 500.66Z" fill="black"/>
<path d="M2038.73 954.411H2083.01L2092.54 958.807C2092.54 958.807 2100.94 961.569 2103.77 963.417C2096.58 981.475 2090.81 999.644 2080.67 1016.07C2062.93 1044.76 2037.77 1064.22 2007.13 1077.37C2002.7 1079.27 1999.58 1078.81 1996.3 1075.73C1992.48 1072.13 1988.54 1068.65 1984.71 1065.06C1984.07 1064.46 1983.75 1063.53 1982.82 1062.01C2010.92 1052.99 2035.74 1039.19 2053.64 1015.27C2062.58 1003.31 2069.44 990.23 2073.36 974.753C2070.76 974.382 2068.46 973.797 2066.15 973.778C2055.02 973.676 2043.88 973.992 2032.76 973.62C2027.56 973.444 2024.13 975.254 2020.95 979.228C2010.29 992.579 1997.96 1004.19 1983.04 1014.32C1977.48 1010.33 1971.81 1006.26 1966.09 1002.16C1977.86 991.242 1989.86 981.252 2000.46 969.944C2011.25 958.441 2019.42 944.886 2025.01 928.973C2032.79 931.526 2040.24 933.977 2048.35 936.641C2045.08 942.695 2042.21 947.996 2038.73 954.411Z" fill="black"/>
<path d="M2480.41 992.803C2454.88 992.803 2430.23 992.803 2405.06 992.803C2405.06 986.202 2405.06 980.204 2405.06 974.16C2437.36 974.16 2469.12 974.16 2501.61 974.16C2501.61 1009.84 2501.61 1044.91 2501.61 1081.25C2495.99 1081.25 2480.41 1081.25 2480.41 1081.25V1074.9C2456.31 1074.9 2429.05 1074.84 2403.09 1074.84C2403.09 1068.29 2403.09 1062.29 2403.09 1055.55C2428.53 1055.55 2454.64 1055.84 2480.68 1055.84L2480.68 1032.73C2472.67 1032.66 2464.78 1032.57 2456.89 1032.53C2449.15 1032.49 2441.42 1032.52 2433.67 1032.52C2425.7 1032.52 2417.72 1032.52 2409.21 1032.52C2409.21 1025.9 2409.21 1020.22 2409.21 1013.73C2433.04 1013.73 2456.4 1013.73 2480.42 1013.73C2480.42 1013.73 2480.41 1000.36 2480.41 992.803Z" fill="black"/>
<path d="M1198.23 1084C1193.06 1078.1 1188.22 1072.55 1182.66 1066.2C1185.66 1065.17 1187.78 1064.28 1190 1063.71C1203.63 1060.21 1216.4 1054.99 1226.91 1045.28C1239.29 1033.84 1245.02 1019.26 1247.56 1001.53C1224.5 1000.9 1202.19 1001.32 1178.73 1001.23C1178.73 1011.43 1178.73 1020.81 1178.73 1030.74C1171.54 1030.74 1165.49 1030.74 1158.79 1030.74C1158.79 1014.69 1158.79 998.809 1158.79 982.273C1172.99 982.273 1187.09 982.273 1201.98 982.273C1201.98 975.041 1201.98 968.421 1201.98 961.05C1209.81 961.05 1216.92 961.05 1224.29 961.05C1224.29 967.948 1224.29 974.354 1224.29 982.125C1233.15 982.125 1255.61 982.273 1255.61 982.273L1273.71 989.19C1269.19 1014.95 1263.78 1040.47 1243.66 1059.94C1231.1 1072.08 1215.97 1079.29 1198.23 1084Z" fill="black"/>
<path d="M992.639 982.439C1016.2 990.563 1039.75 997.934 1062.77 1009.09C1059.89 1016.55 1057.15 1023.63 1054.21 1031.25C1033.88 1023.02 1014.06 1015 992.426 1006.23L993.633 1077.84C985.007 1077.84 977.17 1077.84 968.897 1077.84C968.897 1031.21 968.897 984.927 968.897 938.005C976.353 938.005 984.218 938.005 992.639 938.005C992.639 952.47 992.639 966.851 992.639 982.439Z" fill="black"/>
<path d="M1913.94 954.094C1900.68 974.343 1887.69 994.192 1867.44 1008.81C1861.96 1004.46 1856.76 1000.32 1850.99 995.743C1862.07 986.273 1874.92 975.843 1882.87 962.27C1882.87 962.27 1862.64 963.694 1853.96 963.582C1845 963.462 1836.03 963.554 1827.06 963.554C1818.09 963.554 1809.13 963.554 1800.16 963.554C1791.28 963.554 1782.39 963.554 1772.88 963.554C1772.88 956.406 1772.88 949.526 1772.88 943.176C1808.94 943.176 1844.39 943.176 1879.84 943.176C1882.93 943.176 1895 943.176 1895 943.176L1913.94 954.094Z" fill="black"/>
<path d="M2609.47 1074.43C2605.18 1067.55 2601.13 1061.05 2596.34 1053.37C2652.45 1044.06 2694.58 1015.94 2722.56 965.857C2727.07 973.916 2731.04 981.037 2734.9 987.945C2715.63 1027.3 2659.83 1068.61 2609.47 1074.43Z" fill="black"/>
<path d="M2304.98 973.377C2309.47 981.185 2313.29 987.851 2317.7 995.529C2286.72 1038.08 2245.78 1065.3 2193.9 1077.28C2189.65 1069.76 2185.77 1062.86 2181.42 1055.14C2234.74 1046.04 2275.28 1019.24 2304.98 973.377Z" fill="black"/>
<path d="M1353.43 991.37C1399.51 991.37 1444.28 991.37 1489.85 991.37C1489.85 999.679 1489.85 1007.77 1489.85 1016.23C1444.61 1016.23 1399.59 1016.23 1353.53 1016.23C1352.82 1007.99 1352.92 999.689 1353.43 991.37Z" fill="black"/>
<path d="M1798.42 1077.91C1792.4 1073.02 1786.69 1068.37 1780.18 1063.06C1782.95 1061.42 1785.09 1059.98 1787.37 1058.81C1808.59 1047.9 1820.97 1031.12 1821.71 1006.77C1821.99 997.248 1821.75 987.714 1821.75 977.594C1829.52 977.594 1836.78 977.594 1845.37 977.594C1845.37 981.28 1845.64 984.882 1845.33 988.428C1844.19 1001.01 1843.95 1013.8 1841.38 1026.1C1836.27 1050.51 1820.24 1066.53 1798.42 1077.91Z" fill="black"/>
<path d="M1651.01 1003.99C1651.2 1016.23 1641.54 1026.16 1629.58 1026.03C1618.27 1025.9 1608.24 1015.79 1608.23 1004.51C1608.22 993.136 1617.99 983.294 1629.54 983.025C1641.08 982.756 1650.82 992.272 1651.01 1003.99Z" fill="black"/>
<path d="M2660.29 975.578C2653.97 981.307 2648.51 986.255 2642.69 991.538C2629.74 980.388 2616.05 968.615 2601.94 956.472C2606.54 951.467 2611.12 946.51 2616.53 940.633L2660.29 975.578Z" fill="black"/>
<path d="M2250.69 958.942C2246.29 965.441 2242.53 970.993 2238.47 976.99C2225.85 968.894 2213.73 961.133 2200.87 952.889C2204.59 947.132 2208.2 941.543 2212.39 935.054C2212.39 935.054 2237.83 950.215 2250.69 958.942Z" fill="black"/>
<path d="M2212.74 1015.53C2199.7 1007.27 2187.57 999.605 2174.78 991.509C2178.77 985.41 2182.4 979.858 2186.7 973.294C2199.66 981.371 2212.05 989.086 2224.8 997.024C2220.46 1003.67 2216.8 1009.28 2212.74 1015.53Z" fill="black"/>
<path d="M1075.01 958.132C1070 960.583 1065.97 962.561 1061.41 964.789C1056.21 956.415 1051.27 948.467 1045.95 939.907C1050.32 937.874 1054.16 936.092 1059.2 933.752C1064.32 941.634 1069.36 949.424 1075.01 958.132Z" fill="black"/>
<path d="M1052.06 968.087C1046.9 970.371 1042.77 972.2 1038.28 974.187C1033.38 965.738 1028.78 957.781 1023.66 948.952C1027.82 947.077 1031.9 945.229 1036.94 942.945C1041.98 951.31 1046.83 959.369 1052.06 968.087Z" fill="black"/>
<line x1="322.975" y1="1031.79" x2="475.975" y2="976.18" stroke="#F0D800" stroke-width="6"/>
<line x1="364.975" y1="1056.79" x2="517.975" y2="1001.18" stroke="#F0D800" stroke-width="6"/>
<path d="M354 1103.11L507 1047.5" stroke="#F0D800" stroke-width="6"/>
<g clip-path="url(#clip1_186_2)">
<path d="M509.872 879.335L477.854 887.914C471.96 889.493 468.484 895.633 470.09 901.627L471.544 907.054C473.15 913.048 479.231 916.628 485.125 915.048L506.597 909.295L569.063 1026.12C579.298 1045.26 600.885 1055.05 621.559 1050.06L621.563 1050.08L705.05 1027.71C725.849 1022.13 739.536 1002.13 737.458 980.34L729.519 897.111C728.197 883.254 714.909 873.836 701.682 877.38L543.54 919.754L525.648 886.292C522.582 880.557 516.053 877.678 509.872 879.335Z" fill="#F0D800"/>
<path d="M632.798 1081.97C636.011 1093.95 629.058 1106.23 617.27 1109.39C605.481 1112.55 593.321 1105.39 590.109 1093.4C586.896 1081.41 593.848 1069.14 605.637 1065.98C617.425 1062.82 629.586 1069.98 632.798 1081.97Z" fill="#F0D800"/>
<path d="M750.196 1050.51C753.408 1062.5 746.456 1074.78 734.667 1077.94C722.879 1081.09 710.718 1073.94 707.506 1061.95C704.294 1049.96 711.246 1037.68 723.034 1034.52C734.823 1031.36 746.983 1038.52 750.196 1050.51Z" fill="#F0D800"/>
</g>
<path d="M2208 385.631C2208 389.635 2208 392.572 2208 396.433C2195.44 396.433 2182.77 396.212 2170.2 396.212C2170.2 396.212 2170.31 392.959 2170.2 391.36L2170.19 385.631C2182.54 385.631 2194.66 385.631 2208 385.631Z" fill="#F0D800"/>
<path d="M2208.82 376.826C2195.03 376.826 2182.1 376.826 2169.07 376.826C2168.31 374.802 2167.45 373.131 2167.06 371.357C2164.12 358.146 2157.91 346.494 2150.22 335.511C2146.49 330.191 2142.73 324.899 2139.16 319.487C2123.05 295.134 2131.5 260.941 2158.3 245.826C2180.71 233.199 2210.55 236.068 2229.38 252.863C2248.02 269.482 2252.33 296.248 2239.69 317.825C2237.04 322.355 2234.07 326.719 2230.96 330.943C2221.69 343.495 2214.07 356.809 2210.68 372.239C2210.36 373.697 2209.54 375.062 2208.82 376.826Z" fill="#F0D800"/>
<defs>
<clipPath id="clip0_186_2">
<rect width="265.175" height="269.68" fill="white" transform="translate(465 882.633) rotate(-15)"/>
</clipPath>
<clipPath id="clip1_186_2">
<rect width="265.175" height="269.68" fill="white" transform="translate(465 882.633) rotate(-15)"/>
</clipPath>
</defs>
</svg>
